<svg width="240" height="827" viewBox="0 0 240 827" fill="none" xmlns="http://www.w3.org/2000/svg">
<rect width="86.7399" height="120.302" rx="6" transform="matrix(-0.830966 -0.556323 -0.556323 0.830966 289.333 148.367)" fill="#FAF3F3"/>
<rect width="86.7399" height="120.302" rx="6" transform="matrix(-0.830966 -0.556323 -0.556323 0.830966 139.332 181.762)" fill="#FAF3F3"/>
<rect width="86.7399" height="120.302" rx="6" transform="matrix(-0.830966 -0.556323 -0.556323 0.830966 278.325 370.441)" fill="#FAF3F3"/>
<rect width="86.7399" height="120.302" rx="6" transform="matrix(-0.830966 -0.556323 -0.556323 0.830966 353.325 629.441)" fill="#FAF3F3"/>
<rect width="86.7399" height="86.7399" rx="6" transform="matrix(-0.830966 -0.556323 -0.556323 0.830966 210.994 267.861)" fill="#FAF3F3"/>
<rect width="86.7399" height="86.7399" rx="6" transform="matrix(-0.830966 -0.556323 -0.556323 0.830966 120.332 48.2559)" fill="#FAF3F3"/>
<rect width="86.7399" height="86.7399" rx="6" transform="matrix(-0.830966 -0.556323 -0.556323 0.830966 199.994 485.861)" fill="#FAF3F3"/>
<rect width="86.7399" height="102.16" rx="6" transform="matrix(-0.830966 -0.556323 -0.556323 0.830966 343.333 264.441)" fill="#FAF3F3"/>
<rect width="86.7399" height="102.16" rx="6" transform="matrix(-0.830966 -0.556323 -0.556323 0.830966 257.333 581.441)" fill="#FAF3F3"/>
<rect width="86.7399" height="102.16" rx="6" transform="matrix(-0.830966 -0.556323 -0.556323 0.830966 332.333 482.441)" fill="#FAF3F3"/>
</svg>
